<svg xmlns="http://www.w3.org/2000/svg" viewBox="0 0 53.99 51.76">
    <g id="Path_8" data-name="Path 8" class="cls-1">
        <g id="Path_8-2" data-name="Path 8">
            <path 
                class="cls-2" 
                d="M42.18,26.88c-4.61,0-9,4-10,4.95a7.47,7.47,0,0,1-5.46,2.38c-2,0-5-1.44-5-4.55s3-4.55,5-4.55a2.93,2.93,0,0,0,
                    3.06-2.78,2.93,2.93,0,0,0-3.06-2.79c-5.36,0-11.14,3.87-11.14,10.12s5.78,10.12,11.13,10.12a13.82,13.82,0,0,0,
                    9.77-4l.14-.13c1.36-1.35,4-3.21,5.5-3.21A3.46,3.46,0,0,1,45,33.71a2.57,2.57,0,0,1,.15,2.69c-.84,1.88-5.65,
                    11.28-18.37,11.28C14.54,47.68,7,38.33,7,29.66s7.58-18,19.82-18A20,20,0,0,1,40,16.22a18.86,18.86,0,0,1,5.31,
                    7A3.15,3.15,0,0,0,49.2,25a2.73,2.73,0,0,0,1.88-3.55,2.82,2.82,0,0,0-.14-.35c5.16-6.81,2.25-17,2.12-17.5A3,3,
                    0,0,0,49.93,1.5c-6.33.32-12.24,4-14.76,5.81a29,29,0,0,0-16.48-.09c-2.6-1.83-8.41-5.4-14.62-5.72A3,3,0,0,0,.94,
                    3.56C.81,4-2,13.91,2.81,20.72a21.77,21.77,0,0,0-2,8.94A22.9,22.9,0,0,0,8,46a26.79,26.79,0,0,0,18.75,
                    7.3A26.37,26.37,0,0,0,43.6,47.64a25.1,25.1,0,0,0,7.23-9.16,7.67,7.67,0,0,0-.75-7.89A9.75,9.75,0,0,0,42.18,
                    26.88ZM47.64,7.47a18.27,18.27,0,0,1-.39,7.72,26.69,26.69,0,0,0-3.11-3.08,26.19,26.19,0,0,0-2.76-2A24,24,0,0,1,
                    47.64,7.47Zm-41.29,0a24.19,24.19,0,0,1,6,2.52A25.47,25.47,0,0,0,8,13.38c-.46.46-.91.93-1.33,1.41A18.89,18.89,0,0,
                    1,6.35,7.47Z" 
                transform="translate(0 -1.49)"
                style="fill:current;fill-rule:evenodd"
            />
        </g>
    </g>
</svg>