<svg xmlns="http://www.w3.org/2000/svg" viewBox="0 0 99 33">
    <g id="Path_21" data-name="Path 21" style="isolation:isolate">
        <g id="Path_21-2" data-name="Path 21">
            <path 
                d="M62.5,20.6c0-.52-.17-5.47-4.6-7.59a14.51,14.51,0,0,0-6-1.23,13.86,13.86,0,0,0-1.44.05,15.79,15.79,0,0,
                    0-7.92,2.78,2.54,2.54,0,0,0-1.17,2.12,2.49,2.49,0,0,0,.72,1.75,3.67,3.67,0,0,0,4.55.37A10.2,10.2,0,0,1,52,
                    17.25a6.83,6.83,0,0,1,2.77.57,2.78,2.78,0,0,1,1.11,1.83,17.93,17.93,0,0,0-2.11-.09c-.83,0-1.6.05-2.44.05-6,
                    .19-8.64,1.88-9.91,3.3A5.37,5.37,0,0,0,40,26.54a4.92,4.92,0,0,0,.22,1.55c1,3.58,4.26,5.61,9,5.61a22.32,22.32,
                    0,0,0,3.49-.33,15.67,15.67,0,0,0,3.83-1.13,3.25,3.25,0,0,0,2.88,1.51A3,3,0,0,0,62.55,31l0-3Zm-7.15,5.13A5.66,
                    5.66,0,0,1,51.47,28a.46.46,0,0,0-.22.05,13.44,13.44,0,0,1-2.11.19c-2.32,0-2.54-.8-2.71-1.37a2.08,2.08,0,0,
                    0-.06-.24.64.64,0,0,1,.17-.37c.39-.43,1.83-1,4.38-1.09,1.33,0,2.1,0,2.82,0a15.57,15.57,0,0,1,1.89.09ZM11.75,
                    9.47a14,14,0,0,1,9.14-3.2A14.13,14.13,0,0,1,30,9.47a3.28,3.28,0,0,0,2.27.8,3.36,3.36,0,0,0,2.27-.8,2.52,2.52,
                    0,0,0,1-2,2.38,2.38,0,0,0-.89-1.88A21.11,21.11,0,0,0,20.89.75,20.9,20.9,0,0,0,7.15,5.61,15.22,15.22,0,0,0,1.5,
                    17.25,15.24,15.24,0,0,0,7.15,28.94a21.22,21.22,0,0,0,13.74,4.81,21.16,21.16,0,0,0,13.68-4.81,2.6,2.6,0,0,0,
                    1-2V17.25a3,3,0,0,0-3.22-2.73H21a3.06,3.06,0,0,0-3.27,2.73A3.06,3.06,0,0,0,21,20h8.09v5.8a14.39,14.39,0,0,
                    1-8.2,2.5A13.94,13.94,0,0,1,11.75,25a10.25,10.25,0,0,1-3.82-7.78A10.25,10.25,0,0,1,11.75,9.47ZM100.44,
                    28V20.6c0-.52-.16-5.47-4.59-7.59a14.51,14.51,0,0,0-6-1.23,13.86,13.86,0,0,0-1.44.05,15.86,15.86,0,0,0-7.93,
                    2.78,2.55,2.55,0,0,0-1.16,2.12A2.49,2.49,0,0,0,80,18.48a3.66,3.66,0,0,0,4.54.37,10.26,10.26,0,0,1,5.38-1.6,
                    6.83,6.83,0,0,1,2.77.57,2.78,2.78,0,0,1,1.11,1.83,17.93,17.93,0,0,0-2.11-.09c-.83,0-1.61.05-2.44.05-6,
                    .19-8.64,1.88-9.91,3.3a5.37,5.37,0,0,0-1.44,3.63,4.92,4.92,0,0,0,.22,1.55c1,3.58,4.26,5.61,9,5.61a22.32,
                    22.32,0,0,0,3.49-.33,15.67,15.67,0,0,0,3.83-1.13,3.24,3.24,0,0,0,2.88,1.51A3,3,0,0,0,100.5,31ZM93.3,
                    25.73A5.66,5.66,0,0,1,89.42,28a.44.44,0,0,0-.22.05,13.44,13.44,0,0,1-2.11.19c-2.32,0-2.55-.8-2.71-1.37a2.08,
                    2.08,0,0,0-.06-.24.58.58,0,0,1,.17-.37c.39-.43,1.83-1,4.38-1.09,1.33,0,2.1,0,2.82,0a15.25,15.25,0,0,1,
                    1.88.09ZM70.2.75A3,3,0,0,0,67,3.48V31a3.29,3.29,0,0,0,6.49,0V3.48A3,3,0,0,0,70.2.75Z" 
                transform="translate(-1.5 -0.75)" 
                style="fill:current;fill-rule:evenodd"
            />
        </g>
    </g>
</svg>